# xmcd
#
# Track frame offsets:
#	150
#	17298
#	33092
#	55522
#	67215
#	95577
#	126034
#	142202
#
# Disc length: 2146 seconds
#
# Revision: 0
# Processed by: cddbd v1.5.1PL2 Copyright (c) Steve Scherf et al.
# Submitted via: dBpowerAMP V4.0
#
DISCID=67086008
DTITLE=Don Brewer Blues Project - Voodoo Soul Blues
DYEAR=2005
DGENRE=Blues
TTITLE0=out last night
TTITLE1=can't we get it right
TTITLE2=that way
TTITLE3=new york blues
TTITLE4=downtown woman
TTITLE5=hurricane, hurricane
TTITLE6=foolin the blues
TTITLE7=dance
EXTD=
EXTT0=
EXTT1=
EXTT2=
EXTT3=
EXTT4=
EXTT5=
EXTT6=
EXTT7=
PLAYORDER=
